<svg xmlns="http://www.w3.org/2000/svg" width="20.533" height="24" viewBox="0 0 20.533 24">
  <g id="Bell" transform="translate(-0.312 0)">
    <path id="Fill_86" data-name="Fill 86" d="M5.133,0V.48a1.425,1.425,0,0,1-1.4,1.44A1.425,1.425,0,0,1,2.333.48V0H0V.48A3.787,3.787,0,0,0,3.733,4.32,3.787,3.787,0,0,0,7.467.48V0H5.133" transform="translate(6.844 19.68)" fill="#95989c"/>
    <path id="Fill_87" data-name="Fill 87" d="M19.366,19.68H1.166A1.155,1.155,0,0,1,.314,19.3a1.207,1.207,0,0,1,.919-2.019,1.117,1.117,0,0,0,1.1-1.131V10.56A8.272,8.272,0,0,1,4.281,5.21,7.887,7.887,0,0,1,9.1,2.5V1.2A1.167,1.167,0,0,1,10.387.006a1.238,1.238,0,0,1,1.046,1.263V2.5A7.888,7.888,0,0,1,16.252,5.21,8.272,8.272,0,0,1,18.2,10.56v5.589a1.117,1.117,0,0,0,1.1,1.131,1.206,1.206,0,0,1,.919,2.019A1.156,1.156,0,0,1,19.366,19.68ZM10.267,4.8c-.179,0-.361.009-.541.026a5.838,5.838,0,0,0-5.06,5.9V17.28h11.2V10.56a5.8,5.8,0,0,0-1.641-4.07A5.483,5.483,0,0,0,10.267,4.8Z" transform="translate(0.311 0)" fill="#95989c"/>
  </g>
</svg>
