<svg xmlns="http://www.w3.org/2000/svg" width="25.49" height="22.98" viewBox="0 0 25.49 22.98">
  <g id="Group" transform="translate(-0.34 -0.02)">
    <g id="Ways_of_payment">
      <path id="Fill_91" data-name="Fill 91" d="M21.422,22.98H4.068A4.078,4.078,0,0,1,0,18.9V9.169A4.078,4.078,0,0,1,4.068,5.09H6.639L15.1.491a4.062,4.062,0,0,1,5.512,1.646L22.263,5.18a4.092,4.092,0,0,1,3.227,3.99V18.9A4.078,4.078,0,0,1,21.422,22.98ZM4.068,7.646A1.523,1.523,0,0,0,2.549,9.169V18.9a1.523,1.523,0,0,0,1.519,1.523H21.422A1.523,1.523,0,0,0,22.941,18.9V9.169a1.523,1.523,0,0,0-1.519-1.523Zm12.969-5.09a1.489,1.489,0,0,0-.719.184L11.993,5.09h7.323l-.938-1.738A1.52,1.52,0,0,0,17.037,2.556Z" transform="translate(0.34 0.02)" fill="#95989c"/>
      <path id="Fill_92" data-name="Fill 92" d="M14.02,2.556H1.275A1.278,1.278,0,0,1,1.275,0H14.02a1.278,1.278,0,0,1,0,2.556" transform="translate(5.438 10.222)" fill="#95989c"/>
    </g>
    <path id="Fill_115" data-name="Fill 115" d="M1.275,0A1.278,1.278,0,1,0,2.549,1.278,1.276,1.276,0,0,0,1.275,0" transform="translate(11.725 14.822)" fill="#95989c"/>
    <path id="Fill_116" data-name="Fill 116" d="M1.275,0A1.278,1.278,0,1,0,2.549,1.278,1.276,1.276,0,0,0,1.275,0" transform="translate(7.137 14.822)" fill="#95989c"/>
    <path id="Fill_118" data-name="Fill 118" d="M1.275,0A1.278,1.278,0,1,0,2.549,1.278,1.276,1.276,0,0,0,1.275,0" transform="translate(16.314 14.822)" fill="#95989c"/>
  </g>
</svg>
