<svg xmlns="http://www.w3.org/2000/svg" width="22.549" height="23" viewBox="0 0 22.549 23">
  <g id="Menu" transform="translate(-0.301)">
    <path id="Fill_49" data-name="Fill 49" d="M18.9,23H3.645A3.687,3.687,0,0,1,0,19.282V3.719A3.687,3.687,0,0,1,3.645,0H18.9a3.687,3.687,0,0,1,3.645,3.719V19.282A3.687,3.687,0,0,1,18.9,23ZM3.645,2.3a1.406,1.406,0,0,0-1.39,1.418V19.282A1.406,1.406,0,0,0,3.645,20.7H18.9a1.406,1.406,0,0,0,1.39-1.418V3.719A1.406,1.406,0,0,0,18.9,2.3Z" transform="translate(0.301)" fill="#95989c"/>
    <path id="Fill_50" data-name="Fill 50" d="M12.4,0H1.127A1.139,1.139,0,0,0,0,1.15,1.139,1.139,0,0,0,1.127,2.3H12.4a1.139,1.139,0,0,0,1.127-1.15A1.139,1.139,0,0,0,12.4,0" transform="translate(4.811 5.52)" fill="#95989c"/>
    <path id="Fill_51" data-name="Fill 51" d="M12.4,0H1.127A1.139,1.139,0,0,0,0,1.15,1.139,1.139,0,0,0,1.127,2.3H12.4a1.139,1.139,0,0,0,1.127-1.15A1.139,1.139,0,0,0,12.4,0" transform="translate(4.811 10.58)" fill="#95989c"/>
    <path id="Fill_52" data-name="Fill 52" d="M10.6,2.3H1.127A1.139,1.139,0,0,1,0,1.15,1.139,1.139,0,0,1,1.127,0H10.6a1.139,1.139,0,0,1,1.127,1.15A1.139,1.139,0,0,1,10.6,2.3" transform="translate(4.811 15.64)" fill="#95989c"/>
  </g>
</svg>
