<svg id="xrp" xmlns="http://www.w3.org/2000/svg" width="27.75" height="30" viewBox="0 0 27.75 30">
  <path id="Shape" d="M18.344.807a6.335,6.335,0,0,0-3.138,5.454,7.124,7.124,0,0,0,1.047,3.366,2.36,2.36,0,0,1-.93,3.366,2.486,2.486,0,0,1-3.366-.93A10.478,10.478,0,0,0,9.4,9.511a6.088,6.088,0,0,0-6.268,0,6.32,6.32,0,0,0,0,10.917,6.088,6.088,0,0,0,6.268,0,6.4,6.4,0,0,0,2.436-2.553,2.39,2.39,0,0,1,3.366-.93,2.6,2.6,0,0,1,.93,3.366,6.994,6.994,0,0,0-.93,3.366,6.312,6.312,0,0,0,3.138,5.454,6.088,6.088,0,0,0,6.268,0,6.311,6.311,0,0,0,0-10.912,7.009,7.009,0,0,0-3.483-.813,2.436,2.436,0,1,1,0-4.872,7.315,7.315,0,0,0,3.483-.813,6.309,6.309,0,0,0,0-10.908A6.01,6.01,0,0,0,21.477,0a5.994,5.994,0,0,0-3.132.807" fill="#fff"/>
</svg>
